<svg xmlns="http://www.w3.org/2000/svg" width="256" height="256" viewBox="0 0 256 256" fill="white">
  <path d="M128 0C57.31 0 0 57.31 0 128c0 22.61 5.92 44.61 17.15 63.88L0 256l66.52-17.07C86.17 248.8 106.71 256 128 256c70.69 0 128-57.31 128-128S198.69 0 128 0zm0 230.86c-19.44 0-38.45-5.19-55-15l-3.93-2.31-39.44 10.13 10.51-38.44-2.58-3.99C29.32 166.74 23 147.79 23 128 23 67.77 67.77 23 128 23s105 44.77 105 105-44.77 102.86-105 102.86zM190.57 151.72c-3.28-1.64-19.38-9.57-22.38-10.66-3-.92-5.17-1.38-7.35 1.64-2.18 3-8.42 10.66-10.33 12.84-1.91 2.18-3.82 2.46-7.1.82-3.28-1.64-13.84-5.1-26.36-16.23-9.75-8.7-16.34-19.43-18.25-22.71-1.91-3.28-.2-5.05 1.44-6.68 1.48-1.47 3.28-3.82 4.92-5.73 1.64-1.91 2.18-3.28 3.28-5.46 1.1-2.18.55-4.1-.27-5.73-.82-1.64-7.35-17.82-10.1-24.46-2.67-6.41-5.39-5.54-7.35-5.64-1.9-.09-4.1-.11-6.3-.11s-5.73.82-8.74 4.1c-3 3.28-11.46 11.2-11.46 27.32 0 16.12 11.74 31.71 13.37 33.9 1.64 2.18 23.07 35.33 55.92 49.55 32.84 14.22 32.84 9.48 38.77 8.88 5.73-.55 18.76-7.66 21.4-15.06 2.64-7.4 2.64-13.73 1.82-15.07-.82-1.33-3-2.18-6.3-3.82z"/>
</svg>
